<svg width="788" height="474" viewBox="0 0 788 474" fill="none" xmlns="http://www.w3.org/2000/svg">
<g id="Frame">
<g clip-path="url(#clip0)">
<g id="Blob">
<path d="M727.583 374.816C726.705 376.955 725.83 379.064 724.957 381.146C723.595 384.379 722.25 387.549 720.923 390.657C720.333 392.034 719.743 393.386 719.168 394.737C712.66 409.765 706.583 423.057 701.422 433.988C696.739 443.893 689.786 452.192 681.291 458.016C672.795 463.839 663.071 466.973 653.135 467.09L538.377 468.501H537.166L527.329 468.621L518.914 468.723L493.109 469.04H492.065L478.928 469.202H478.527L397.557 470.195L325.281 471.05L316.874 471.153L264.659 471.794H264.599L230.735 472.205H230.372L123.294 473.513L91.2619 473.907C88.5344 473.942 85.8076 473.788 83.0968 473.445V473.445C82.1736 473.325 81.2504 473.188 80.3347 473.026C65.3953 470.419 51.6971 462.106 41.522 449.47C27.7419 432.338 17.7152 412.348 10.9802 390.657C10.0066 387.527 9.09851 384.356 8.25602 381.146C-15.0589 292.063 13.364 177.132 64.519 100.22C66.6631 97.0041 68.8425 93.8679 71.0572 90.8115L71.1102 90.7431C86.8426 68.915 104.482 50.6793 123.272 37.7124C156.568 14.6954 193.459 8.21197 229.744 27.5339C260.444 43.8879 289.109 51.5774 316.897 53.6644C319.704 53.8696 322.512 54.0236 325.304 54.1177C389.044 56.3843 448.78 30.425 518.929 13.669C521.721 13.0018 524.521 12.3432 527.344 11.7188C577.387 0.462644 632.9 -5.47336 698.918 7.00595C705.776 8.27241 712.544 10.102 719.168 12.4801C722.079 13.5407 724.884 14.6811 727.583 15.9014C759.093 30.3908 776.278 57.1627 783.581 90.7088C784.272 93.8223 784.87 96.9898 785.374 100.212C798.322 180.904 760.402 295.364 727.583 374.816Z" fill="#F2F2F2"/>
<path d="M727.583 374.816C726.705 376.955 725.83 379.064 724.957 381.146C723.595 384.379 722.25 387.549 720.923 390.657C720.333 392.034 719.743 393.386 719.168 394.737C712.66 409.765 706.583 423.057 701.422 433.988C696.739 443.893 689.786 452.192 681.291 458.016C672.795 463.839 663.071 466.973 653.135 467.09L538.377 468.501H537.166L527.329 468.621L518.914 468.723L493.109 469.04H492.065L478.928 469.202H478.527L397.557 470.195L325.281 471.05L316.874 471.153L264.659 471.794H264.599L230.735 472.205H230.372L123.294 473.513L91.2619 473.907C88.5344 473.942 85.8076 473.788 83.0968 473.445V473.445C82.1736 473.325 81.2504 473.188 80.3347 473.026C65.3953 470.419 51.6971 462.106 41.522 449.47C27.7419 432.338 17.7152 412.348 10.9802 390.657C10.0066 387.527 9.09851 384.356 8.25602 381.146C-15.0589 292.063 13.364 177.132 64.519 100.22C66.6631 97.0041 68.8425 93.8679 71.0572 90.8115L71.1102 90.7431C86.8426 68.915 104.482 50.6793 123.272 37.7124C156.568 14.6954 193.459 8.21197 229.744 27.5339C260.444 43.8879 289.109 51.5774 316.897 53.6644C319.704 53.8696 322.512 54.0236 325.304 54.1177C389.044 56.3843 448.78 30.425 518.929 13.669C521.721 13.0018 524.521 12.3432 527.344 11.7188C577.387 0.462644 632.9 -5.47336 698.918 7.00595C705.776 8.27241 712.544 10.102 719.168 12.4801C722.079 13.5407 724.884 14.6811 727.583 15.9014C759.093 30.3908 776.278 57.1627 783.581 90.7088C784.272 93.8223 784.87 96.9898 785.374 100.212C798.322 180.904 760.402 295.364 727.583 374.816Z" fill="url(#paint0_linear)"/>
</g>
<g id="Desk">
<path id="Vector" opacity="0.2" d="M653.128 456.449V467.568L538.165 468.765L536.939 468.791L493.245 469.244L492.201 469.261L478.92 469.39H478.527L397.572 470.237L264.682 471.631H264.569L230.781 471.99L230.417 471.999L80.2817 473.555V460.725L115.583 436.776L186.413 436.109L187.927 436.1L188.426 436.092L189.94 436.066L223.947 435.75L225.468 435.741L225.953 435.732L227.466 435.724L238.371 435.621L238.658 435.613L265.56 435.356H265.779L475.697 433.355L480.835 433.312H481.35L485.269 433.269L513.76 433.004L515.274 432.978L516.674 432.961H517.4L526.262 432.884L528.017 432.859L530.371 432.841L537.749 432.764L549.455 432.653L550.969 432.636L553.602 432.619H554.094L610.63 432.072L653.128 456.449Z" fill="black"/>
<path id="Vector_2" d="M224.068 413.69V434.638C224.069 435.63 223.82 436.602 223.351 437.44C222.882 438.279 222.213 438.95 221.42 439.376C220.829 439.7 220.184 439.875 219.528 439.889L193.118 440.522C192.413 440.541 191.713 440.374 191.075 440.035C190.268 439.617 189.584 438.945 189.105 438.101C188.626 437.256 188.372 436.274 188.373 435.271V413.69H224.068Z" fill="#3F3D56"/>
<path id="Vector_3" opacity="0.1" d="M224.068 413.69V434.638C224.069 435.63 223.82 436.602 223.351 437.44C222.882 438.279 222.213 438.95 221.42 439.376C220.829 439.7 220.184 439.875 219.528 439.889L193.118 440.522C192.413 440.541 191.713 440.374 191.075 440.035C190.268 439.617 189.584 438.945 189.105 438.101C188.626 437.256 188.372 436.274 188.373 435.271V413.69H224.068Z" fill="black"/>
<path id="Vector_4" d="M225.582 413.69V434.638C225.582 435.63 225.334 436.602 224.865 437.44C224.396 438.279 223.726 438.95 222.933 439.376C222.343 439.7 221.697 439.875 221.041 439.889L194.631 440.522C193.926 440.541 193.227 440.374 192.588 440.035C191.781 439.617 191.098 438.945 190.619 438.101C190.14 437.256 189.886 436.274 189.887 435.271V413.69H225.582Z" fill="#3F3D56"/>
<path id="Vector_5" d="M550.969 413.682H515.274V440.625H550.969V413.682Z" fill="#3F3D56"/>
<path id="Vector_6" opacity="0.1" d="M550.969 413.682H515.274V440.625H550.969V413.682Z" fill="black"/>
<path id="Vector_7" d="M549.455 413.682H513.76V440.625H549.455V413.682Z" fill="#3F3D56"/>
<path id="Vector_8" opacity="0.1" d="M225.574 413.682V417.933L189.879 419.011V413.682H225.574Z" fill="black"/>
<path id="Vector_9" d="M288.58 267.172V411.039C288.571 411.917 288.263 412.758 287.721 413.387C287.178 414.016 286.443 414.385 285.666 414.417L140.639 418.78H140.601C139.811 418.769 139.056 418.409 138.498 417.778C137.94 417.147 137.622 416.294 137.612 415.401V267.172C137.622 266.279 137.94 265.426 138.498 264.795C139.056 264.164 139.811 263.804 140.601 263.793H285.591C286.38 263.804 287.135 264.164 287.693 264.795C288.252 265.426 288.57 266.279 288.58 267.172V267.172Z" fill="#65617D"/>
<path id="Vector_10" opacity="0.1" d="M140.639 263.793V418.78H140.601C139.811 418.769 139.056 418.409 138.498 417.778C137.94 417.147 137.622 416.294 137.612 415.401V267.172C137.622 266.279 137.94 265.426 138.498 264.795C139.056 264.164 139.811 263.804 140.601 263.793H140.639Z" fill="black"/>
<path id="Vector_11" d="M147.252 272.98H281.572V399.783L147.252 403.204V272.98Z" fill="#A29CAE"/>
<path id="Vector_12" opacity="0.1" d="M549.455 413.682V419.165L513.76 418.087V413.682H549.455Z" fill="black"/>
<path id="Vector_13" d="M596.57 267.172V415.401C596.56 416.301 596.236 417.16 595.67 417.793C595.103 418.425 594.339 418.78 593.543 418.78V418.78L448.485 414.417C447.708 414.385 446.973 414.016 446.43 413.387C445.888 412.758 445.58 411.917 445.571 411.039V267.172C445.581 266.279 445.899 265.426 446.458 264.795C447.016 264.164 447.771 263.804 448.56 263.793H593.55C594.345 263.796 595.107 264.151 595.672 264.783C596.237 265.415 596.56 266.273 596.57 267.172V267.172Z" fill="#65617D"/>
<path id="Vector_14" opacity="0.1" d="M596.57 267.172V415.401C596.56 416.301 596.236 417.16 595.67 417.793C595.103 418.425 594.339 418.78 593.543 418.78V418.78V263.793C594.339 263.793 595.103 264.148 595.67 264.78C596.236 265.413 596.56 266.272 596.57 267.172Z" fill="black"/>
<path id="Vector_15" d="M453.094 399.295V273.48H586.414V402.691L453.094 399.295Z" fill="#A29CAE" stroke="black"/>
<path id="Vector_16" d="M441.818 267.172V411.039C441.809 411.917 441.501 412.758 440.959 413.387C440.416 414.016 439.681 414.385 438.904 414.417L293.877 418.78C293.081 418.78 292.316 418.425 291.75 417.793C291.183 417.16 290.86 416.301 290.85 415.401V267.172C290.86 266.279 291.178 265.426 291.736 264.795C292.295 264.164 293.049 263.804 293.839 263.793H438.829C439.619 263.804 440.373 264.164 440.932 264.795C441.49 265.426 441.808 266.279 441.818 267.172V267.172Z" fill="#65617D"/>
<path id="Vector_17" d="M300.491 272.98H434.811V399.783L300.491 403.204V272.98Z" fill="#A29CAE"/>
<path id="Vector_18" opacity="0.1" d="M653.128 456.449V467.568L538.165 468.765L536.939 468.791L493.245 469.244L492.201 469.261L478.92 469.39H478.527L397.572 470.237L264.682 471.631H264.569L230.781 471.99L230.417 471.999L80.2817 473.555V460.725L233.527 459.588H233.891L264.909 459.348H265.053L479.269 457.749H479.488L479.617 457.74H479.972L483.597 457.714H484.702L541.071 457.287L544.4 457.27L545.142 457.261L653.128 456.449Z" fill="black"/>
<path id="Vector_19" d="M653.128 456.449V467.568L538.165 468.765L536.939 468.791L493.245 469.244L492.201 469.261L478.92 469.39H478.527L397.572 470.237L264.682 471.631H264.569L230.781 471.99L230.417 471.999L80.2817 473.555V460.725L115.583 436.776L186.413 436.109L187.927 436.1L188.426 436.092L189.94 436.066L223.947 435.75L225.468 435.741L225.953 435.732L227.466 435.724L238.371 435.621L238.658 435.613L265.56 435.356H265.779L475.697 433.355L480.835 433.312H481.35L485.269 433.269L513.76 433.004L515.274 432.978L516.674 432.961H517.4L526.262 432.884L528.017 432.859L530.371 432.841L537.749 432.764L549.455 432.653L550.969 432.636L553.602 432.619H554.094L610.63 432.072L653.128 456.449Z" fill="#65617D"/>
</g>
<g id="Person">
<path id="Vector_20" d="M368.725 298.922C390.178 298.922 407.568 279.265 407.568 255.018C407.568 230.77 390.178 211.113 368.725 211.113C347.273 211.113 329.882 230.77 329.882 255.018C329.882 279.265 347.273 298.922 368.725 298.922Z" fill="#FBBEBE"/>
<path id="Vector_21" d="M407.576 322.597C407.576 322.597 332.281 332.861 339.47 322.597C342.073 318.885 342.792 307.886 342.648 295.355C342.603 291.549 342.482 287.606 342.308 283.68C341.475 264.862 339.47 246.473 339.47 246.473C339.47 246.473 405.306 211.404 397.738 239.202C394.711 250.433 395.703 266.205 398.003 281.011C398.677 285.331 399.456 289.565 400.273 293.585C402.268 303.39 404.705 313.074 407.576 322.597V322.597Z" fill="#FBBEBE"/>
<path id="Vector_22" d="M383.005 319.116C391.715 317.294 400.939 313.984 409.135 317.799C411.291 318.8 413.274 320.262 415.484 321.101C417.693 321.939 420.115 322.144 422.415 322.734C430.497 324.804 437.051 331.758 441.258 339.841C445.465 347.924 447.645 357.067 449.779 366.117L455 388.21C459.541 407.412 464.081 426.777 465.133 446.629C401.92 450.719 338.564 451.127 275.314 447.852C279.431 439.008 283.638 429.625 283.29 419.626C282.942 409.628 277.849 399.766 279.688 389.912C280.861 383.634 284.66 378.459 286.983 372.617C293.604 355.921 288.451 333.452 300.09 320.741C305.326 315.028 312.954 312.864 320.241 313.137C329.534 313.488 339.046 316.764 348.24 318.364C360.015 320.382 371.139 321.58 383.005 319.116Z" fill="#A7226E"/>
</g>
<g id="LowerDesk">
<path id="Vector_23" opacity="0.1" d="M482.061 414.204L481.985 415.427V415.512L481.857 417.48L480.85 433.312L479.632 452.386L479.284 457.757L478.527 469.253V469.398L397.557 470.254L264.682 471.879V472.597H264.576V471.879V471.639L264.917 459.357L265.567 435.356L266.127 415.008L266.18 412.981C266.214 411.757 266.467 410.554 266.925 409.445C267.383 408.336 268.037 407.344 268.846 406.53C269.654 405.716 270.602 405.096 271.629 404.71C272.657 404.323 273.743 404.178 274.822 404.282C278.394 404.624 283.033 405.043 288.58 405.488L290.85 405.676C322.882 408.191 382.082 411.441 441.818 407.387C443.074 407.31 444.338 407.224 445.602 407.122C454.864 406.463 464.119 405.616 473.283 404.556C474.441 404.418 475.612 404.57 476.713 404.999C477.814 405.429 478.819 406.126 479.656 407.042C480.493 407.958 481.142 409.07 481.557 410.3C481.973 411.53 482.145 412.848 482.061 414.161V414.204Z" fill="black"/>
<path id="Vector_24" d="M264.659 472.597V471.879L397.557 470.245L478.527 469.39H478.754V469.244L479.511 457.749L479.836 452.617L481.077 433.278L482.053 417.967V417.591C482.098 416.885 482.071 416.176 481.97 415.478C481.974 415.45 481.974 415.421 481.97 415.393C481.762 413.949 481.242 412.586 480.457 411.424C479.623 410.216 478.532 409.268 477.284 408.67C476.037 408.071 474.676 407.841 473.328 408.002C464.164 409.063 454.909 409.91 445.647 410.568C444.383 410.671 443.119 410.757 441.863 410.834C382.127 414.845 322.928 411.595 290.895 409.123L288.625 408.935C283.078 408.49 278.439 408.079 274.868 407.729C272.903 407.541 270.946 408.183 269.375 409.531C267.805 410.878 266.731 412.835 266.362 415.025C266.286 415.488 266.24 415.957 266.226 416.428L265.711 435.382L265.008 459.391L264.675 471.674V471.913V472.631L264.659 472.597Z" fill="#3F3D56"/>
<path id="Vector_25" opacity="0.1" d="M482.288 420.2L481.357 433.312L479.972 452.856L479.624 457.749L478.868 468.705L478.822 469.253V469.398L478.709 470.664L478.792 469.398H478.572L397.602 470.254L264.682 471.879V471.639L265.053 459.357L265.81 435.356L266.294 419.404C266.318 418.497 266.542 417.61 266.947 416.826C267.351 416.042 267.923 415.384 268.61 414.914C269.466 414.32 270.468 414.05 271.47 414.144C273.059 414.289 275.011 414.46 277.289 414.648C280.99 414.956 285.553 415.316 290.865 415.692C300.703 416.393 313.045 417.146 327.188 417.762C366.538 419.473 419.661 420.046 470.12 415.05C472.39 414.828 474.736 414.58 477.029 414.332C477.936 414.23 478.851 414.426 479.662 414.896C479.892 415.026 480.11 415.181 480.313 415.358C480.972 415.898 481.493 416.623 481.826 417.462C481.904 417.629 481.967 417.804 482.016 417.984C482.243 418.693 482.336 419.448 482.288 420.2V420.2Z" fill="black"/>
<path id="Vector_26" opacity="0.1" d="M225.582 431.909V434.638C225.582 435.63 225.334 436.602 224.865 437.44C224.396 438.279 223.726 438.95 222.933 439.376L192.588 440.035C191.781 439.617 191.098 438.945 190.619 438.101C190.14 437.256 189.886 436.274 189.887 435.271V432.705L225.582 431.909Z" fill="black"/>
<path id="Vector_27" d="M225.953 440.984L186.413 441.84V434.424L225.953 433.568V440.984Z" fill="#3F3D56"/>
<path id="Vector_28" opacity="0.1" d="M225.953 440.984L186.413 441.84V434.424L225.953 433.568V440.984Z" fill="black"/>
<path id="Vector_29" d="M227.466 440.984L187.927 441.84V434.424L227.466 433.568V440.984Z" fill="#3F3D56"/>
<path id="Vector_30" opacity="0.1" d="M513.987 433.62V436.348C513.987 437.34 514.236 438.312 514.704 439.151C515.173 439.99 515.843 440.661 516.636 441.087L546.981 441.745C547.788 441.327 548.471 440.656 548.95 439.811C549.429 438.967 549.683 437.984 549.682 436.981V434.415L513.987 433.62Z" fill="black"/>
<path id="Vector_31" opacity="0.1" d="M513.609 442.695L553.148 443.55V436.134L513.609 435.279V442.695Z" fill="black"/>
<path id="Vector_32" d="M512.096 442.695L551.635 443.55V436.134L512.096 435.279V442.695Z" fill="#3F3D56"/>
</g>
<g id="Hair">
<path d="M344.154 268.472C344.215 274.459 341.763 280.104 339.682 285.638C332.105 305.797 328.823 327.686 330.102 349.54C330.654 358.949 332.054 368.358 330.654 377.681C329.254 387.004 324.275 396.302 316.276 398.979C329.542 407.917 347.499 406.976 359.985 396.704C366.637 391.229 371.593 383.591 376.444 376.081C375.868 389.572 372.412 402.704 366.372 414.358C377.29 413.265 387.883 409.592 397.466 403.578C407.049 397.563 415.407 389.341 421.999 379.443C425.261 374.473 428.098 369.016 429.355 362.995C431.693 351.876 428.431 340.32 425.942 329.209C423.861 319.921 422.302 310.494 421.273 300.983C420.947 297.938 420.682 294.808 421.348 291.831C422.105 288.35 424.126 285.408 425.616 282.234C429.854 273.219 429.952 262.305 427.781 252.4C425.609 242.496 421.356 233.361 417.141 224.337C413.766 217.101 410.103 209.531 403.928 205.28C400.069 202.628 395.604 201.525 391.155 200.456L371.956 195.811C367.757 194.794 363.436 193.776 359.19 194.52C352.024 195.786 346.977 201.636 342.542 207.641C339.069 212.311 330.578 221.078 329.981 227.194C329.436 232.83 333.84 242.273 334.589 248.218C335.573 255.916 336.269 253.35 340.113 258.071C342.542 260.996 344.109 264.375 344.154 268.472Z" fill="#563D3D"/>
<path d="M344.154 268.472C344.215 274.459 341.763 280.104 339.682 285.638C332.105 305.797 328.823 327.686 330.102 349.54C330.654 358.949 332.054 368.358 330.654 377.681C329.254 387.004 324.275 396.302 316.276 398.979C329.542 407.917 347.499 406.976 359.985 396.704C366.637 391.229 371.593 383.591 376.444 376.081C375.868 389.572 372.412 402.704 366.372 414.358C377.29 413.265 387.883 409.592 397.466 403.578C407.049 397.563 415.407 389.341 421.999 379.443C425.261 374.473 428.098 369.016 429.355 362.995C431.693 351.876 428.431 340.32 425.942 329.209C423.861 319.921 422.302 310.494 421.273 300.983C420.947 297.938 420.682 294.808 421.348 291.831C422.105 288.35 424.126 285.408 425.616 282.234C429.854 273.219 429.952 262.305 427.781 252.4C425.609 242.496 421.356 233.361 417.141 224.337C413.766 217.101 410.103 209.531 403.928 205.28C400.069 202.628 395.604 201.525 391.155 200.456L371.956 195.811C367.757 194.794 363.436 193.776 359.19 194.52C352.024 195.786 346.977 201.636 342.542 207.641C339.069 212.311 330.578 221.078 329.981 227.194C329.436 232.83 333.84 242.273 334.589 248.218C335.573 255.916 336.269 253.35 340.113 258.071C342.542 260.996 344.109 264.375 344.154 268.472Z" fill="url(#paint1_linear)"/>
</g>
</g>
</g>
<defs>
<linearGradient id="paint0_linear" x1="733" y1="24" x2="43" y2="474" gradientUnits="userSpaceOnUse">
<stop stop-color="#A8E6CE"/>
<stop offset="0.416667" stop-color="#DCEDC2" stop-opacity="0.67"/>
<stop offset="0.546875" stop-color="#FFAAA6" stop-opacity="0.699057"/>
<stop offset="0.9999" stop-color="#FA3AA2" stop-opacity="0.41"/>
<stop offset="1" stop-color="#FF8C94"/>
</linearGradient>
<linearGradient id="paint1_linear" x1="373.217" y1="194.264" x2="373.217" y2="414.358" gradientUnits="userSpaceOnUse">
<stop stop-color="#76412A"/>
<stop offset="1" stop-color="#714628" stop-opacity="0.32"/>
</linearGradient>
<clipPath id="clip0">
<rect width="788" height="474" fill="white"/>
</clipPath>
</defs>
</svg>
