<svg width="788" height="474" viewBox="0 0 788 474" fill="none" xmlns="http://www.w3.org/2000/svg">
<g id="Frame">
<g clip-path="url(#clip0)">
<g id="Blob">
<path d="M727.583 374.816C726.705 376.955 725.83 379.064 724.957 381.146C723.595 384.379 722.25 387.549 720.923 390.657C720.333 392.034 719.743 393.386 719.168 394.737C712.66 409.765 706.583 423.057 701.422 433.988C696.739 443.893 689.786 452.192 681.291 458.016C672.795 463.839 663.071 466.973 653.135 467.09L538.377 468.501H537.166L527.329 468.621L518.914 468.723L493.109 469.04H492.065L478.928 469.202H478.527L397.557 470.195L325.281 471.05L316.874 471.153L264.659 471.794H264.599L230.735 472.205H230.372L123.294 473.513L91.2619 473.907C88.5344 473.942 85.8076 473.788 83.0968 473.445V473.445C82.1736 473.325 81.2504 473.188 80.3347 473.026C65.3953 470.419 51.6971 462.106 41.522 449.47C27.7419 432.338 17.7152 412.348 10.9802 390.657C10.0066 387.527 9.09851 384.356 8.25602 381.146C-15.0589 292.063 13.364 177.132 64.519 100.22C66.6631 97.0041 68.8425 93.8679 71.0572 90.8115L71.1102 90.7431C86.8426 68.915 104.482 50.6793 123.272 37.7124C156.568 14.6954 193.459 8.21197 229.744 27.5339C260.444 43.8879 289.109 51.5774 316.897 53.6644C319.704 53.8696 322.512 54.0236 325.304 54.1177C389.044 56.3843 448.78 30.425 518.929 13.669C521.721 13.0018 524.521 12.3432 527.344 11.7188C577.387 0.462644 632.9 -5.47336 698.918 7.00595C705.776 8.27241 712.544 10.102 719.168 12.4801C722.079 13.5407 724.884 14.6811 727.583 15.9014C759.093 30.3908 776.278 57.1627 783.581 90.7088C784.272 93.8223 784.87 96.9898 785.374 100.212C798.322 180.904 760.402 295.364 727.583 374.816Z" fill="#F2F2F2"/>
<path d="M727.583 374.816C726.705 376.955 725.83 379.064 724.957 381.146C723.595 384.379 722.25 387.549 720.923 390.657C720.333 392.034 719.743 393.386 719.168 394.737C712.66 409.765 706.583 423.057 701.422 433.988C696.739 443.893 689.786 452.192 681.291 458.016C672.795 463.839 663.071 466.973 653.135 467.09L538.377 468.501H537.166L527.329 468.621L518.914 468.723L493.109 469.04H492.065L478.928 469.202H478.527L397.557 470.195L325.281 471.05L316.874 471.153L264.659 471.794H264.599L230.735 472.205H230.372L123.294 473.513L91.2619 473.907C88.5344 473.942 85.8076 473.788 83.0968 473.445V473.445C82.1736 473.325 81.2504 473.188 80.3347 473.026C65.3953 470.419 51.6971 462.106 41.522 449.47C27.7419 432.338 17.7152 412.348 10.9802 390.657C10.0066 387.527 9.09851 384.356 8.25602 381.146C-15.0589 292.063 13.364 177.132 64.519 100.22C66.6631 97.0041 68.8425 93.8679 71.0572 90.8115L71.1102 90.7431C86.8426 68.915 104.482 50.6793 123.272 37.7124C156.568 14.6954 193.459 8.21197 229.744 27.5339C260.444 43.8879 289.109 51.5774 316.897 53.6644C319.704 53.8696 322.512 54.0236 325.304 54.1177C389.044 56.3843 448.78 30.425 518.929 13.669C521.721 13.0018 524.521 12.3432 527.344 11.7188C577.387 0.462644 632.9 -5.47336 698.918 7.00595C705.776 8.27241 712.544 10.102 719.168 12.4801C722.079 13.5407 724.884 14.6811 727.583 15.9014C759.093 30.3908 776.278 57.1627 783.581 90.7088C784.272 93.8223 784.87 96.9898 785.374 100.212C798.322 180.904 760.402 295.364 727.583 374.816Z" fill="url(#paint0_linear)"/>
</g>
<g id="Desk">
<path id="Vector" opacity="0.2" d="M653.128 456.449V467.568L538.165 468.765L536.939 468.791L493.245 469.244L492.201 469.261L478.92 469.39H478.527L397.572 470.237L264.682 471.631H264.569L230.781 471.99L230.417 471.999L80.2817 473.555V460.725L115.583 436.776L186.413 436.109L187.927 436.1L188.426 436.092L189.94 436.066L223.947 435.75L225.468 435.741L225.953 435.732L227.466 435.724L238.371 435.621L238.658 435.613L265.56 435.356H265.779L475.697 433.355L480.835 433.312H481.35L485.269 433.269L513.76 433.004L515.274 432.978L516.674 432.961H517.4L526.262 432.884L528.017 432.859L530.371 432.841L537.749 432.764L549.455 432.653L550.969 432.636L553.602 432.619H554.094L610.63 432.072L653.128 456.449Z" fill="black"/>
<path id="Vector_2" d="M224.068 413.69V434.638C224.069 435.63 223.82 436.602 223.351 437.44C222.882 438.279 222.213 438.95 221.42 439.376C220.829 439.7 220.184 439.875 219.528 439.889L193.118 440.522C192.413 440.541 191.713 440.374 191.075 440.035C190.268 439.617 189.584 438.945 189.105 438.101C188.626 437.256 188.372 436.274 188.373 435.271V413.69H224.068Z" fill="#3F3D56"/>
<path id="Vector_3" opacity="0.1" d="M224.068 413.69V434.638C224.069 435.63 223.82 436.602 223.351 437.44C222.882 438.279 222.213 438.95 221.42 439.376C220.829 439.7 220.184 439.875 219.528 439.889L193.118 440.522C192.413 440.541 191.713 440.374 191.075 440.035C190.268 439.617 189.584 438.945 189.105 438.101C188.626 437.256 188.372 436.274 188.373 435.271V413.69H224.068Z" fill="black"/>
<path id="Vector_4" d="M225.582 413.69V434.638C225.582 435.63 225.334 436.602 224.865 437.44C224.396 438.279 223.726 438.95 222.933 439.376C222.343 439.7 221.697 439.875 221.041 439.889L194.631 440.522C193.926 440.541 193.227 440.374 192.588 440.035C191.781 439.617 191.098 438.945 190.619 438.101C190.14 437.256 189.886 436.274 189.887 435.271V413.69H225.582Z" fill="#3F3D56"/>
<path id="Vector_5" d="M550.969 413.682H515.274V440.625H550.969V413.682Z" fill="#3F3D56"/>
<path id="Vector_6" opacity="0.1" d="M550.969 413.682H515.274V440.625H550.969V413.682Z" fill="black"/>
<path id="Vector_7" d="M549.455 413.682H513.76V440.625H549.455V413.682Z" fill="#3F3D56"/>
<path id="Vector_8" opacity="0.1" d="M225.574 413.682V417.933L189.879 419.011V413.682H225.574Z" fill="black"/>
<path id="Vector_9" d="M288.58 267.172V411.039C288.571 411.917 288.263 412.758 287.721 413.387C287.178 414.016 286.443 414.385 285.666 414.417L140.639 418.78H140.601C139.811 418.769 139.056 418.409 138.498 417.778C137.94 417.147 137.622 416.294 137.612 415.401V267.172C137.622 266.279 137.94 265.426 138.498 264.795C139.056 264.164 139.811 263.804 140.601 263.793H285.591C286.38 263.804 287.135 264.164 287.693 264.795C288.252 265.426 288.57 266.279 288.58 267.172V267.172Z" fill="#65617D"/>
<path id="Vector_10" opacity="0.1" d="M140.639 263.793V418.78H140.601C139.811 418.769 139.056 418.409 138.498 417.778C137.94 417.147 137.622 416.294 137.612 415.401V267.172C137.622 266.279 137.94 265.426 138.498 264.795C139.056 264.164 139.811 263.804 140.601 263.793H140.639Z" fill="black"/>
<path id="Vector_11" d="M147.252 272.98H281.572V399.783L147.252 403.204V272.98Z" fill="#A29CAE"/>
<path id="Vector_12" opacity="0.1" d="M549.455 413.682V419.165L513.76 418.087V413.682H549.455Z" fill="black"/>
<path id="Vector_13" d="M596.57 267.172V415.401C596.56 416.301 596.236 417.16 595.67 417.793C595.103 418.425 594.339 418.78 593.543 418.78V418.78L448.485 414.417C447.708 414.385 446.973 414.016 446.43 413.387C445.888 412.758 445.58 411.917 445.571 411.039V267.172C445.581 266.279 445.899 265.426 446.458 264.795C447.016 264.164 447.771 263.804 448.56 263.793H593.55C594.345 263.796 595.107 264.151 595.672 264.783C596.237 265.415 596.56 266.273 596.57 267.172V267.172Z" fill="#65617D"/>
<path id="Vector_14" opacity="0.1" d="M596.57 267.172V415.401C596.56 416.301 596.236 417.16 595.67 417.793C595.103 418.425 594.339 418.78 593.543 418.78V418.78V263.793C594.339 263.793 595.103 264.148 595.67 264.78C596.236 265.413 596.56 266.272 596.57 267.172Z" fill="black"/>
<path id="Vector_15" d="M453.094 399.295V273.48H586.414V402.691L453.094 399.295Z" fill="#A29CAE" stroke="black"/>
<path id="Vector_16" d="M441.818 267.172V411.039C441.809 411.917 441.501 412.758 440.959 413.387C440.416 414.016 439.681 414.385 438.904 414.417L293.877 418.78C293.081 418.78 292.316 418.425 291.75 417.793C291.183 417.16 290.86 416.301 290.85 415.401V267.172C290.86 266.279 291.178 265.426 291.736 264.795C292.295 264.164 293.049 263.804 293.839 263.793H438.829C439.619 263.804 440.373 264.164 440.932 264.795C441.49 265.426 441.808 266.279 441.818 267.172V267.172Z" fill="#65617D"/>
<path id="Vector_17" d="M300.491 272.98H434.811V399.783L300.491 403.204V272.98Z" fill="#A29CAE"/>
<path id="Vector_18" opacity="0.1" d="M653.128 456.449V467.568L538.165 468.765L536.939 468.791L493.245 469.244L492.201 469.261L478.92 469.39H478.527L397.572 470.237L264.682 471.631H264.569L230.781 471.99L230.417 471.999L80.2817 473.555V460.725L233.527 459.588H233.891L264.909 459.348H265.053L479.269 457.749H479.488L479.617 457.74H479.972L483.597 457.714H484.702L541.071 457.287L544.4 457.27L545.142 457.261L653.128 456.449Z" fill="black"/>
<path id="Vector_19" d="M653.128 456.449V467.568L538.165 468.765L536.939 468.791L493.245 469.244L492.201 469.261L478.92 469.39H478.527L397.572 470.237L264.682 471.631H264.569L230.781 471.99L230.417 471.999L80.2817 473.555V460.725L115.583 436.776L186.413 436.109L187.927 436.1L188.426 436.092L189.94 436.066L223.947 435.75L225.468 435.741L225.953 435.732L227.466 435.724L238.371 435.621L238.658 435.613L265.56 435.356H265.779L475.697 433.355L480.835 433.312H481.35L485.269 433.269L513.76 433.004L515.274 432.978L516.674 432.961H517.4L526.262 432.884L528.017 432.859L530.371 432.841L537.749 432.764L549.455 432.653L550.969 432.636L553.602 432.619H554.094L610.63 432.072L653.128 456.449Z" fill="#65617D"/>
</g>
<g id="Person">
<path id="Vector_20" d="M368.725 298.922C390.178 298.922 407.568 279.265 407.568 255.018C407.568 230.77 390.178 211.113 368.725 211.113C347.273 211.113 329.882 230.77 329.882 255.018C329.882 279.265 347.273 298.922 368.725 298.922Z" fill="#FBBEBE"/>
<path id="Vector_21" d="M407.576 322.597C407.576 322.597 332.281 332.861 339.47 322.597C342.073 318.885 342.792 307.886 342.648 295.355C342.603 291.549 342.482 287.606 342.308 283.68C341.475 264.862 339.47 246.473 339.47 246.473C339.47 246.473 405.306 211.404 397.738 239.202C394.711 250.433 395.703 266.205 398.003 281.011C398.677 285.331 399.456 289.565 400.273 293.585C402.268 303.39 404.705 313.074 407.576 322.597V322.597Z" fill="#FBBEBE"/>
<path id="Vector_22" d="M383.005 319.116C391.715 317.294 400.939 313.984 409.135 317.799C411.291 318.8 413.274 320.262 415.484 321.101C417.693 321.939 420.115 322.144 422.415 322.734C430.497 324.804 437.051 331.758 441.258 339.841C445.465 347.924 447.645 357.067 449.779 366.117L455 388.21C459.541 407.412 464.081 426.777 465.133 446.629C401.92 450.719 338.564 451.127 275.314 447.852C279.431 439.008 283.638 429.625 283.29 419.626C282.942 409.628 277.849 399.766 279.688 389.912C280.861 383.634 284.66 378.459 286.983 372.617C293.604 355.921 288.451 333.452 300.09 320.741C305.326 315.028 312.954 312.864 320.241 313.137C329.534 313.488 339.046 316.764 348.24 318.364C360.015 320.382 371.139 321.58 383.005 319.116Z" fill="#A7226E"/>
</g>
<g id="LowerDesk">
<path id="Vector_23" opacity="0.1" d="M482.061 414.204L481.985 415.427V415.512L481.857 417.48L480.85 433.312L479.632 452.386L479.284 457.757L478.527 469.253V469.398L397.557 470.254L264.682 471.879V472.597H264.576V471.879V471.639L264.917 459.357L265.567 435.356L266.127 415.008L266.18 412.981C266.214 411.757 266.467 410.554 266.925 409.445C267.383 408.336 268.037 407.344 268.846 406.53C269.654 405.716 270.602 405.096 271.629 404.71C272.657 404.323 273.743 404.178 274.822 404.282C278.394 404.624 283.033 405.043 288.58 405.488L290.85 405.676C322.882 408.191 382.082 411.441 441.818 407.387C443.074 407.31 444.338 407.224 445.602 407.122C454.864 406.463 464.119 405.616 473.283 404.556C474.441 404.418 475.612 404.57 476.713 404.999C477.814 405.429 478.819 406.126 479.656 407.042C480.493 407.958 481.142 409.07 481.557 410.3C481.973 411.53 482.145 412.848 482.061 414.161V414.204Z" fill="black"/>
<path id="Vector_24" d="M264.659 472.597V471.879L397.557 470.245L478.527 469.39H478.754V469.244L479.511 457.749L479.836 452.617L481.077 433.278L482.053 417.967V417.591C482.098 416.885 482.071 416.176 481.97 415.478C481.974 415.45 481.974 415.421 481.97 415.393C481.762 413.949 481.242 412.586 480.457 411.424C479.623 410.216 478.532 409.268 477.284 408.67C476.037 408.071 474.676 407.841 473.328 408.002C464.164 409.063 454.909 409.91 445.647 410.568C444.383 410.671 443.119 410.757 441.863 410.834C382.127 414.845 322.928 411.595 290.895 409.123L288.625 408.935C283.078 408.49 278.439 408.079 274.868 407.729C272.903 407.541 270.946 408.183 269.375 409.531C267.805 410.878 266.731 412.835 266.362 415.025C266.286 415.488 266.24 415.957 266.226 416.428L265.711 435.382L265.008 459.391L264.675 471.674V471.913V472.631L264.659 472.597Z" fill="#3F3D56"/>
<path id="Vector_25" opacity="0.1" d="M482.288 420.2L481.357 433.312L479.972 452.856L479.624 457.749L478.868 468.705L478.822 469.253V469.398L478.709 470.664L478.792 469.398H478.572L397.602 470.254L264.682 471.879V471.639L265.053 459.357L265.81 435.356L266.294 419.404C266.318 418.497 266.542 417.61 266.947 416.826C267.351 416.042 267.923 415.384 268.61 414.914C269.466 414.32 270.468 414.05 271.47 414.144C273.059 414.289 275.011 414.46 277.289 414.648C280.99 414.956 285.553 415.316 290.865 415.692C300.703 416.393 313.045 417.146 327.188 417.762C366.538 419.473 419.661 420.046 470.12 415.05C472.39 414.828 474.736 414.58 477.029 414.332C477.936 414.23 478.851 414.426 479.662 414.896C479.892 415.026 480.11 415.181 480.313 415.358C480.972 415.898 481.493 416.623 481.826 417.462C481.904 417.629 481.967 417.804 482.016 417.984C482.243 418.693 482.336 419.448 482.288 420.2V420.2Z" fill="black"/>
<path id="Vector_26" opacity="0.1" d="M225.582 431.909V434.638C225.582 435.63 225.334 436.602 224.865 437.44C224.396 438.279 223.726 438.95 222.933 439.376L192.588 440.035C191.781 439.617 191.098 438.945 190.619 438.101C190.14 437.256 189.886 436.274 189.887 435.271V432.705L225.582 431.909Z" fill="black"/>
<path id="Vector_27" d="M225.953 440.984L186.413 441.84V434.424L225.953 433.568V440.984Z" fill="#3F3D56"/>
<path id="Vector_28" opacity="0.1" d="M225.953 440.984L186.413 441.84V434.424L225.953 433.568V440.984Z" fill="black"/>
<path id="Vector_29" d="M227.466 440.984L187.927 441.84V434.424L227.466 433.568V440.984Z" fill="#3F3D56"/>
<path id="Vector_30" opacity="0.1" d="M513.987 433.62V436.348C513.987 437.34 514.236 438.312 514.704 439.151C515.173 439.99 515.843 440.661 516.636 441.087L546.981 441.745C547.788 441.327 548.471 440.656 548.95 439.811C549.429 438.967 549.683 437.984 549.682 436.981V434.415L513.987 433.62Z" fill="black"/>
<path id="Vector_31" opacity="0.1" d="M513.609 442.695L553.148 443.55V436.134L513.609 435.279V442.695Z" fill="black"/>
<path id="Vector_32" d="M512.096 442.695L551.635 443.55V436.134L512.096 435.279V442.695Z" fill="#3F3D56"/>
</g>
<g id="Frame 1">
<g id="Hair">
<path d="M336.878 257.208C336.939 263.195 334.487 268.84 332.406 274.374C324.829 294.533 321.547 316.422 322.825 338.276C323.378 347.685 324.778 357.094 323.378 366.417C321.978 375.74 316.999 385.037 309 387.715C322.266 396.653 340.223 395.712 352.709 385.439C359.36 379.965 364.317 372.327 369.168 364.817C368.592 378.308 365.136 391.44 359.096 403.093C370.014 402.001 380.607 398.328 390.19 392.314C399.773 386.299 408.131 378.077 414.723 368.179C417.985 363.209 420.822 357.752 422.078 351.731C424.417 340.611 421.155 329.056 418.666 317.945C416.585 308.657 415.026 299.229 413.997 289.719C413.671 286.674 413.406 283.543 414.072 280.567C414.829 277.086 416.849 274.143 418.34 270.97C422.578 261.955 422.676 251.041 420.504 241.136C418.333 231.231 414.08 222.096 409.865 213.073C406.49 205.836 402.827 198.267 396.652 194.016C392.793 191.364 388.328 190.261 383.879 189.192L364.68 184.547C360.48 183.529 356.16 182.512 351.914 183.256C344.748 184.522 339.701 190.372 335.266 196.377C331.793 201.047 323.302 209.814 322.704 215.929C322.16 221.566 326.564 231.009 327.313 236.953C328.297 244.651 328.993 242.085 332.837 246.807C335.266 249.732 336.833 253.111 336.878 257.208Z" fill="#563D3D"/>
<path d="M336.878 257.208C336.939 263.195 334.487 268.84 332.406 274.374C324.829 294.533 321.547 316.422 322.825 338.276C323.378 347.685 324.778 357.094 323.378 366.417C321.978 375.74 316.999 385.037 309 387.715C322.266 396.653 340.223 395.712 352.709 385.439C359.36 379.965 364.317 372.327 369.168 364.817C368.592 378.308 365.136 391.44 359.096 403.093C370.014 402.001 380.607 398.328 390.19 392.314C399.773 386.299 408.131 378.077 414.723 368.179C417.985 363.209 420.822 357.752 422.078 351.731C424.417 340.611 421.155 329.056 418.666 317.945C416.585 308.657 415.026 299.229 413.997 289.719C413.671 286.674 413.406 283.543 414.072 280.567C414.829 277.086 416.849 274.143 418.34 270.97C422.578 261.955 422.676 251.041 420.504 241.136C418.333 231.231 414.08 222.096 409.865 213.073C406.49 205.836 402.827 198.267 396.652 194.016C392.793 191.364 388.328 190.261 383.879 189.192L364.68 184.547C360.48 183.529 356.16 182.512 351.914 183.256C344.748 184.522 339.701 190.372 335.266 196.377C331.793 201.047 323.302 209.814 322.704 215.929C322.16 221.566 326.564 231.009 327.313 236.953C328.297 244.651 328.993 242.085 332.837 246.807C335.266 249.732 336.833 253.111 336.878 257.208Z" fill="url(#paint1_linear)"/>
</g>
<g id="code_screen">
<path id="Vector_33" d="M575 293H466V382H575V293Z" fill="#3F3D56"/>
<path id="Vector_34" d="M519.26 305.163H492.37C492.327 305.163 492.284 305.154 492.245 305.137C492.205 305.12 492.169 305.095 492.139 305.063C492.108 305.032 492.084 304.994 492.068 304.953C492.051 304.912 492.043 304.868 492.043 304.823C492.043 304.778 492.051 304.734 492.068 304.693C492.084 304.652 492.108 304.614 492.139 304.583C492.169 304.551 492.205 304.526 492.245 304.509C492.284 304.492 492.327 304.483 492.37 304.483H519.26C519.346 304.484 519.429 304.52 519.49 304.583C519.551 304.647 519.586 304.733 519.586 304.823C519.586 304.913 519.551 304.999 519.49 305.063C519.429 305.127 519.346 305.163 519.26 305.163V305.163Z" fill="#F2F2F2"/>
<path id="Vector_35" d="M548.696 308.899H506.402C506.316 308.899 506.233 308.863 506.171 308.799C506.11 308.735 506.076 308.649 506.076 308.559C506.076 308.469 506.11 308.382 506.171 308.319C506.233 308.255 506.316 308.219 506.402 308.219H548.696C548.738 308.219 548.781 308.228 548.82 308.245C548.86 308.262 548.896 308.287 548.926 308.319C548.957 308.35 548.981 308.388 548.997 308.429C549.013 308.47 549.022 308.514 549.022 308.559C549.022 308.604 549.013 308.648 548.997 308.689C548.981 308.73 548.957 308.768 548.926 308.799C548.896 308.831 548.86 308.856 548.82 308.873C548.781 308.89 548.738 308.899 548.696 308.899V308.899Z" fill="#F2F2F2"/>
<path id="Vector_36" d="M519.39 312.634H492.5C492.414 312.634 492.331 312.599 492.27 312.535C492.208 312.471 492.174 312.385 492.174 312.295C492.174 312.205 492.208 312.118 492.27 312.055C492.331 311.991 492.414 311.955 492.5 311.955H519.39C519.477 311.955 519.56 311.991 519.621 312.055C519.682 312.118 519.717 312.205 519.717 312.295C519.717 312.385 519.682 312.471 519.621 312.535C519.56 312.599 519.477 312.634 519.39 312.634V312.634Z" fill="#F2F2F2"/>
<path id="Vector_37" d="M548.696 312.702H521.805C521.719 312.702 521.636 312.667 521.575 312.603C521.513 312.539 521.479 312.453 521.479 312.363C521.479 312.273 521.513 312.186 521.575 312.123C521.636 312.059 521.719 312.023 521.805 312.023H548.696C548.782 312.023 548.865 312.059 548.926 312.123C548.987 312.186 549.022 312.273 549.022 312.363C549.022 312.453 548.987 312.539 548.926 312.603C548.865 312.667 548.782 312.702 548.696 312.702V312.702Z" fill="#F2F2F2"/>
<path id="Vector_38" d="M519.456 316.37H492.566C492.479 316.37 492.396 316.334 492.335 316.271C492.274 316.207 492.239 316.121 492.239 316.031C492.239 315.941 492.274 315.854 492.335 315.79C492.396 315.727 492.479 315.691 492.566 315.691H519.456C519.542 315.691 519.625 315.727 519.686 315.79C519.748 315.854 519.782 315.941 519.782 316.031C519.782 316.121 519.748 316.207 519.686 316.271C519.625 316.334 519.542 316.37 519.456 316.37V316.37Z" fill="#F2F2F2"/>
<path id="Vector_39" d="M519.521 320.106H492.631C492.544 320.106 492.461 320.07 492.4 320.007C492.339 319.943 492.304 319.857 492.304 319.766C492.304 319.676 492.339 319.59 492.4 319.526C492.461 319.463 492.544 319.427 492.631 319.427H519.521C519.608 319.427 519.691 319.463 519.752 319.526C519.813 319.59 519.847 319.676 519.847 319.766C519.847 319.857 519.813 319.943 519.752 320.007C519.691 320.07 519.608 320.106 519.521 320.106V320.106Z" fill="#F2F2F2"/>
<path id="Vector_40" d="M531.726 305.231H524.024C523.938 305.231 523.855 305.195 523.794 305.131C523.733 305.067 523.698 304.981 523.698 304.891C523.698 304.801 523.733 304.715 523.794 304.651C523.855 304.587 523.938 304.551 524.024 304.551H531.726C531.813 304.551 531.896 304.587 531.957 304.651C532.018 304.715 532.052 304.801 532.052 304.891C532.052 304.981 532.018 305.067 531.957 305.131C531.896 305.195 531.813 305.231 531.726 305.231V305.231Z" fill="#F2F2F2"/>
<path id="Vector_41" d="M531.726 316.37H524.024C523.938 316.37 523.855 316.334 523.794 316.271C523.733 316.207 523.698 316.121 523.698 316.031C523.698 315.941 523.733 315.854 523.794 315.79C523.855 315.727 523.938 315.691 524.024 315.691H531.726C531.813 315.691 531.896 315.727 531.957 315.79C532.018 315.854 532.052 315.941 532.052 316.031C532.052 316.121 532.018 316.207 531.957 316.271C531.896 316.334 531.813 316.37 531.726 316.37V316.37Z" fill="#F2F2F2"/>
<path id="Vector_42" d="M531.726 320.038H524.024C523.982 320.038 523.939 320.03 523.899 320.012C523.86 319.995 523.824 319.97 523.793 319.939C523.763 319.907 523.739 319.87 523.722 319.829C523.706 319.787 523.697 319.743 523.697 319.699C523.697 319.654 523.706 319.61 523.722 319.568C523.739 319.527 523.763 319.49 523.793 319.458C523.824 319.427 523.86 319.402 523.899 319.385C523.939 319.368 523.982 319.359 524.024 319.359H531.726C531.769 319.359 531.811 319.368 531.851 319.385C531.891 319.402 531.927 319.427 531.957 319.458C531.988 319.49 532.012 319.527 532.028 319.568C532.045 319.61 532.053 319.654 532.053 319.699C532.053 319.743 532.045 319.787 532.028 319.829C532.012 319.87 531.988 319.907 531.957 319.939C531.927 319.97 531.891 319.995 531.851 320.012C531.811 320.03 531.769 320.038 531.726 320.038V320.038Z" fill="#F2F2F2"/>
<path id="Vector_43" d="M544.649 320.038H536.947C536.861 320.038 536.778 320.002 536.717 319.938C536.656 319.875 536.622 319.788 536.622 319.699C536.622 319.609 536.656 319.522 536.717 319.459C536.778 319.395 536.861 319.359 536.947 319.359H544.649C544.692 319.359 544.734 319.368 544.774 319.385C544.814 319.402 544.85 319.427 544.88 319.458C544.911 319.49 544.935 319.527 544.951 319.568C544.968 319.61 544.976 319.654 544.976 319.699C544.976 319.743 544.968 319.787 544.951 319.829C544.935 319.87 544.911 319.907 544.88 319.939C544.85 319.97 544.814 319.995 544.774 320.012C544.734 320.03 544.692 320.038 544.649 320.038V320.038Z" fill="#F2F2F2"/>
<path id="Vector_44" d="M500.006 308.899H492.304C492.218 308.899 492.135 308.863 492.074 308.799C492.013 308.735 491.978 308.649 491.978 308.559C491.978 308.469 492.013 308.382 492.074 308.319C492.135 308.255 492.218 308.219 492.304 308.219H500.006C500.093 308.219 500.176 308.255 500.237 308.319C500.298 308.382 500.332 308.469 500.332 308.559C500.332 308.649 500.298 308.735 500.237 308.799C500.176 308.863 500.093 308.899 500.006 308.899V308.899Z" fill="#F2F2F2"/>
<path id="Vector_45" d="M519.293 360.182H492.402C492.316 360.182 492.233 360.146 492.172 360.082C492.11 360.018 492.076 359.932 492.076 359.842C492.076 359.752 492.11 359.665 492.172 359.602C492.233 359.538 492.316 359.502 492.402 359.502H519.293C519.379 359.502 519.462 359.538 519.523 359.602C519.585 359.665 519.619 359.752 519.619 359.842C519.619 359.932 519.585 360.018 519.523 360.082C519.462 360.146 519.379 360.182 519.293 360.182Z" fill="#F2F2F2"/>
<path id="Vector_46" d="M519.162 367.653H492.272C492.185 367.653 492.102 367.617 492.041 367.554C491.98 367.49 491.945 367.404 491.945 367.314C491.945 367.224 491.98 367.137 492.041 367.073C492.102 367.01 492.185 366.974 492.272 366.974H519.162C519.249 366.974 519.332 367.01 519.393 367.073C519.454 367.137 519.488 367.224 519.488 367.314C519.488 367.404 519.454 367.49 519.393 367.554C519.332 367.617 519.249 367.653 519.162 367.653Z" fill="#F2F2F2"/>
<path id="Vector_47" d="M519.227 371.389H492.337C492.294 371.389 492.252 371.38 492.212 371.363C492.172 371.346 492.136 371.321 492.106 371.29C492.076 371.258 492.051 371.221 492.035 371.18C492.019 371.138 492.01 371.094 492.01 371.049C492.01 371.005 492.019 370.961 492.035 370.919C492.051 370.878 492.076 370.841 492.106 370.809C492.136 370.777 492.172 370.752 492.212 370.735C492.252 370.718 492.294 370.71 492.337 370.71H519.227C519.27 370.71 519.313 370.718 519.352 370.735C519.392 370.752 519.428 370.777 519.458 370.809C519.489 370.841 519.513 370.878 519.529 370.919C519.546 370.961 519.554 371.005 519.554 371.049C519.554 371.094 519.546 371.138 519.529 371.18C519.513 371.221 519.489 371.258 519.458 371.29C519.428 371.321 519.392 371.346 519.352 371.363C519.313 371.38 519.27 371.389 519.227 371.389V371.389Z" fill="#F2F2F2"/>
<path id="Vector_48" d="M530.714 367.721H523.013C522.926 367.721 522.843 367.685 522.782 367.622C522.721 367.558 522.686 367.472 522.686 367.381C522.686 367.291 522.721 367.205 522.782 367.141C522.843 367.078 522.926 367.042 523.013 367.042H530.714C530.801 367.042 530.884 367.078 530.945 367.141C531.006 367.205 531.041 367.291 531.041 367.381C531.041 367.472 531.006 367.558 530.945 367.622C530.884 367.685 530.801 367.721 530.714 367.721Z" fill="#F2F2F2"/>
<path id="Vector_49" d="M530.714 371.389H523.013C522.926 371.389 522.843 371.353 522.782 371.29C522.721 371.226 522.686 371.139 522.686 371.049C522.686 370.959 522.721 370.873 522.782 370.809C522.843 370.746 522.926 370.71 523.013 370.71H530.714C530.801 370.71 530.884 370.746 530.945 370.809C531.006 370.873 531.041 370.959 531.041 371.049C531.041 371.139 531.006 371.226 530.945 371.29C530.884 371.353 530.801 371.389 530.714 371.389V371.389Z" fill="#F2F2F2"/>
<path id="Vector_50" d="M543.637 367.721H535.936C535.849 367.721 535.766 367.685 535.705 367.622C535.644 367.558 535.609 367.472 535.609 367.381C535.609 367.291 535.644 367.205 535.705 367.141C535.766 367.078 535.849 367.042 535.936 367.042H543.637C543.724 367.042 543.807 367.078 543.868 367.141C543.929 367.205 543.964 367.291 543.964 367.381C543.964 367.472 543.929 367.558 543.868 367.622C543.807 367.685 543.724 367.721 543.637 367.721V367.721Z" fill="#F2F2F2"/>
<path id="Vector_51" d="M548.728 363.917H506.435C506.348 363.917 506.265 363.882 506.204 363.818C506.143 363.754 506.109 363.668 506.109 363.578C506.109 363.488 506.143 363.401 506.204 363.338C506.265 363.274 506.348 363.238 506.435 363.238H548.728C548.815 363.238 548.898 363.274 548.959 363.338C549.02 363.401 549.055 363.488 549.055 363.578C549.055 363.668 549.02 363.754 548.959 363.818C548.898 363.882 548.815 363.917 548.728 363.917V363.917Z" fill="#F2F2F2"/>
<path id="Vector_52" d="M500.039 363.917H492.337C492.251 363.917 492.168 363.882 492.106 363.818C492.045 363.754 492.011 363.668 492.011 363.578C492.011 363.488 492.045 363.401 492.106 363.338C492.168 363.274 492.251 363.238 492.337 363.238H500.039C500.125 363.238 500.208 363.274 500.269 363.338C500.331 363.401 500.365 363.488 500.365 363.578C500.365 363.668 500.331 363.754 500.269 363.818C500.208 363.882 500.125 363.917 500.039 363.917V363.917Z" fill="#F2F2F2"/>
<path id="Vector_53" d="M548.728 375.193H506.435C506.392 375.193 506.349 375.184 506.31 375.167C506.27 375.15 506.234 375.125 506.204 375.094C506.173 375.062 506.149 375.025 506.133 374.983C506.116 374.942 506.108 374.898 506.108 374.853C506.108 374.809 506.116 374.764 506.133 374.723C506.149 374.682 506.173 374.644 506.204 374.613C506.234 374.581 506.27 374.556 506.31 374.539C506.349 374.522 506.392 374.513 506.435 374.514H548.728C548.815 374.514 548.898 374.549 548.959 374.613C549.02 374.677 549.055 374.763 549.055 374.853C549.055 374.943 549.02 375.03 548.959 375.093C548.898 375.157 548.815 375.193 548.728 375.193V375.193Z" fill="#F2F2F2"/>
<path id="Vector_54" d="M500.039 375.193H492.337C492.294 375.193 492.252 375.184 492.212 375.167C492.172 375.15 492.136 375.125 492.106 375.094C492.076 375.062 492.051 375.025 492.035 374.983C492.019 374.942 492.01 374.898 492.01 374.853C492.01 374.809 492.019 374.764 492.035 374.723C492.051 374.682 492.076 374.644 492.106 374.613C492.136 374.581 492.172 374.556 492.212 374.539C492.252 374.522 492.294 374.513 492.337 374.514H500.039C500.082 374.513 500.124 374.522 500.164 374.539C500.203 374.556 500.239 374.581 500.27 374.613C500.3 374.644 500.324 374.682 500.341 374.723C500.357 374.764 500.366 374.809 500.366 374.853C500.366 374.898 500.357 374.942 500.341 374.983C500.324 375.025 500.3 375.062 500.27 375.094C500.239 375.125 500.203 375.15 500.164 375.167C500.124 375.184 500.082 375.193 500.039 375.193Z" fill="#F2F2F2"/>
<path id="Vector_55" d="M468.899 296.62C469.619 296.62 470.203 296.013 470.203 295.263C470.203 294.513 469.619 293.905 468.899 293.905C468.178 293.905 467.594 294.513 467.594 295.263C467.594 296.013 468.178 296.62 468.899 296.62Z" fill="#FF8C94"/>
<path id="Vector_56" d="M472.378 296.62C473.098 296.62 473.682 296.013 473.682 295.263C473.682 294.513 473.098 293.905 472.378 293.905C471.657 293.905 471.073 294.513 471.073 295.263C471.073 296.013 471.657 296.62 472.378 296.62Z" fill="#FF8C94"/>
<path id="Vector_57" d="M475.856 296.62C476.577 296.62 477.161 296.013 477.161 295.263C477.161 294.513 476.577 293.905 475.856 293.905C475.136 293.905 474.552 294.513 474.552 295.263C474.552 296.013 475.136 296.62 475.856 296.62Z" fill="#FF8C94"/>
<path id="Vector_58" opacity="0.1" d="M575 297.525H466V297.978H575V297.525Z" fill="black"/>
</g>
<g id="code_arrows">
<path id="Vector_59" d="M512.798 329.072L502.356 339.804L512.798 350.536L515.148 348.091L507.251 339.872L515.213 331.585L512.798 329.072Z" fill="#FF8C94"/>
<path id="Vector_60" d="M528.202 329.072L538.644 339.804L528.202 350.536L525.852 348.091L533.749 339.872L525.787 331.585L528.202 329.072Z" fill="#FF8C94"/>
</g>
</g>
<g id="React_screen">
<path id="Vector_61" d="M248.148 322.384C247.02 321.961 245.883 321.57 244.737 321.21C244.926 320.367 245.102 319.519 245.264 318.667C247.846 304.974 246.158 293.942 240.391 290.311C234.862 286.828 225.819 290.46 216.684 299.139C215.783 299.998 214.904 300.88 214.045 301.784C213.469 301.182 212.883 300.591 212.288 300.013C202.718 290.73 193.131 286.82 187.363 290.462C181.839 293.955 180.2 304.325 182.528 317.304C182.755 318.589 183.016 319.867 183.311 321.137C181.955 321.558 180.643 322.007 179.388 322.486C168.167 326.75 161 333.456 161 340.403C161 347.577 168.694 354.773 180.382 359.136C181.33 359.487 182.286 359.814 183.248 360.116C182.936 361.482 182.659 362.859 182.415 364.247C180.198 377 181.931 387.127 187.44 390.597C193.131 394.185 202.683 390.497 211.981 381.618C212.717 380.916 213.453 380.171 214.199 379.392C215.129 380.372 216.083 381.323 217.062 382.246C226.071 390.713 234.971 394.133 240.473 390.651C246.158 387.058 248.005 376.179 245.607 362.945C245.425 361.934 245.213 360.903 244.971 359.851C245.643 359.635 246.3 359.411 246.942 359.179C259.093 354.782 267 347.674 267 340.403C267 333.43 259.601 326.689 248.153 322.384H248.148Z" fill="#A8E6CE"/>
<path id="Vector_62" d="M245.513 354.484C244.933 354.695 244.34 354.896 243.732 355.093C242.251 350.077 240.458 345.177 238.365 340.427C240.378 335.741 242.102 330.913 243.524 325.975C244.607 326.318 245.662 326.679 246.675 327.061C256.483 330.748 262.467 336.2 262.467 340.403C262.467 344.874 256.004 350.688 245.513 354.484ZM241.16 363.906C242.221 369.758 242.371 375.048 241.672 379.182C241.041 382.898 239.772 385.376 238.203 386.369C234.862 388.479 227.719 385.735 220.015 378.494C219.131 377.664 218.243 376.779 217.349 375.84C220.561 371.956 223.529 367.84 226.233 363.519C231.064 363.072 235.86 362.263 240.589 361.097C240.805 362.051 240.997 362.983 241.164 363.892L241.16 363.906ZM197.136 386.007C193.872 387.267 191.272 387.302 189.701 386.313C186.359 384.206 184.968 376.067 186.865 365.169C187.093 363.882 187.35 362.601 187.638 361.326C192.347 362.431 197.119 363.186 201.922 363.586C204.705 367.892 207.745 371.993 211.021 375.862C210.363 376.559 209.69 377.236 209.002 377.895C204.89 381.821 200.767 384.601 197.136 386.007V386.007ZM181.847 354.456C176.678 352.526 172.41 350.019 169.484 347.284C166.855 344.825 165.528 342.383 165.528 340.403C165.528 336.187 171.283 330.809 180.879 327.156C182.084 326.698 183.3 326.28 184.527 325.903C185.952 330.895 187.678 335.779 189.693 340.522C187.653 345.334 185.906 350.287 184.464 355.35C183.584 355.076 182.711 354.778 181.847 354.456ZM186.973 316.354C184.98 305.234 186.302 296.846 189.632 294.745C193.177 292.509 201.018 295.698 209.283 303.714C209.812 304.227 210.342 304.763 210.873 305.316C207.62 309.162 204.604 313.24 201.845 317.522C197.088 317.988 192.363 318.79 187.701 319.923C187.429 318.741 187.186 317.551 186.973 316.355V316.354ZM232.701 328.684C231.665 326.729 230.591 324.799 229.479 322.894C232.861 323.362 236.1 323.98 239.143 324.74C238.166 328.123 237.034 331.45 235.75 334.708C234.771 332.678 233.755 330.67 232.701 328.684ZM214.049 308.85C216.253 311.475 218.335 314.219 220.286 317.073C216.112 316.858 211.936 316.858 207.758 317.073C209.817 314.107 211.927 311.35 214.049 308.852V308.85ZM195.287 328.717C194.247 330.688 193.249 332.684 192.294 334.705C190.976 331.29 189.848 327.931 188.927 324.688C191.951 323.943 195.176 323.345 198.536 322.885C197.408 324.802 196.324 326.746 195.284 328.717H195.287ZM198.632 358.271C195.352 357.883 192.093 357.31 188.867 356.556C189.804 353.257 190.957 349.825 192.304 346.336C193.263 348.359 194.264 350.356 195.308 352.327C196.37 354.338 197.477 356.319 198.628 358.271H198.632ZM214.177 372.304C212.027 369.782 209.887 366.988 207.799 363.968C209.829 364.056 211.896 364.1 214.001 364.1C216.161 364.1 218.294 364.048 220.398 363.944C218.456 366.845 216.378 369.636 214.173 372.304H214.177ZM235.785 346.159C237.135 349.483 238.326 352.882 239.353 356.341C236.087 357.144 232.785 357.759 229.46 358.184C230.58 356.243 231.665 354.279 232.714 352.292C233.781 350.272 234.804 348.228 235.785 346.159ZM228.792 349.822C227.186 352.867 225.491 355.853 223.707 358.782C220.562 359.028 217.313 359.154 214.001 359.154C210.689 359.154 207.494 359.043 204.404 358.823C202.574 355.904 200.846 352.913 199.22 349.849C197.594 346.786 196.087 343.676 194.699 340.52C196.094 337.35 197.597 334.239 199.207 331.187C200.814 328.137 202.527 325.157 204.346 322.246C207.499 321.985 210.73 321.849 213.997 321.849C217.265 321.849 220.516 321.987 223.666 322.248C225.464 325.15 227.17 328.119 228.783 331.154C230.397 334.189 231.92 337.286 233.352 340.444C231.937 343.626 230.418 346.749 228.797 349.814L228.792 349.822ZM238.133 294.596C241.682 296.831 243.062 305.847 240.833 317.671C240.686 318.439 240.527 319.206 240.355 319.971C235.686 318.815 230.952 317.998 226.184 317.525C223.451 313.24 220.458 309.159 217.224 305.313C218.02 304.476 218.833 303.661 219.662 302.87C227.487 295.432 234.8 292.496 238.133 294.596Z" fill="#A29CAE"/>
<path id="Vector_63" d="M213.997 330.064C215.87 330.064 217.7 330.671 219.256 331.807C220.813 332.943 222.026 334.557 222.743 336.446C223.459 338.336 223.647 340.414 223.282 342.42C222.916 344.425 222.015 346.268 220.691 347.714C219.367 349.16 217.68 350.144 215.844 350.543C214.008 350.942 212.105 350.737 210.375 349.955C208.645 349.172 207.167 347.847 206.127 346.147C205.087 344.447 204.531 342.448 204.531 340.403C204.531 339.045 204.776 337.701 205.252 336.446C205.727 335.192 206.424 334.052 207.303 333.092C208.183 332.132 209.226 331.37 210.375 330.851C211.523 330.331 212.754 330.064 213.997 330.064" fill="#A8E6CE"/>
</g>
<g id="Stars">
<path id="Vector_64" d="M627.166 36.2624C626.691 36.0895 626.309 35.7772 626.092 35.3848C625.875 34.9923 625.837 34.5469 625.987 34.133C626.01 34.0694 626.024 34.0038 626.029 33.9375V33.9375C626.042 33.7478 625.981 33.5596 625.857 33.4006C625.732 33.2416 625.549 33.1204 625.336 33.0547C625.122 32.989 624.889 32.9823 624.67 33.0357C624.452 33.089 624.26 33.1996 624.122 33.3511V33.3511C624.075 33.4052 624.036 33.4638 624.005 33.5256C623.798 33.9219 623.424 34.2409 622.954 34.4224C622.484 34.6038 621.95 34.635 621.454 34.51C621.378 34.4907 621.3 34.479 621.22 34.4751V34.4751C620.993 34.4642 620.768 34.5146 620.577 34.6188C620.387 34.723 620.241 34.8755 620.163 35.0538C620.084 35.2322 620.076 35.4269 620.14 35.6093C620.204 35.7917 620.336 35.9521 620.518 36.067V36.067C620.583 36.1063 620.653 36.1391 620.727 36.1647C621.202 36.3337 621.587 36.6421 621.809 37.0318C622.031 37.4216 622.074 37.8656 621.931 38.2802C621.908 38.3437 621.894 38.4094 621.889 38.4757V38.4757C621.876 38.6654 621.937 38.8536 622.061 39.0126C622.186 39.1715 622.369 39.2928 622.582 39.3585C622.796 39.4242 623.029 39.4309 623.248 39.3775C623.466 39.3242 623.658 39.2136 623.796 39.0621V39.0621C623.843 39.008 623.882 38.9494 623.913 38.8876C624.12 38.4913 624.494 38.1722 624.964 37.9908C625.434 37.8094 625.968 37.7782 626.464 37.9032C626.54 37.9224 626.618 37.9342 626.698 37.9381V37.9381C626.925 37.949 627.151 37.8986 627.341 37.7944C627.531 37.6902 627.677 37.5377 627.755 37.3594C627.834 37.181 627.842 36.9863 627.778 36.8039C627.714 36.6215 627.582 36.461 627.4 36.3462C627.327 36.3102 627.248 36.282 627.166 36.2624V36.2624Z" fill="black"/>
<path id="Vector_65" d="M406.389 79.5494C405.915 79.3764 405.532 79.0641 405.315 78.6717C405.098 78.2792 405.06 77.8338 405.21 77.4199C405.233 77.3564 405.247 77.2907 405.252 77.2244C405.265 77.0347 405.205 76.8465 405.08 76.6875C404.955 76.5286 404.772 76.4073 404.559 76.3416C404.345 76.2759 404.112 76.2692 403.893 76.3226C403.675 76.3759 403.483 76.4865 403.345 76.638V76.638C403.298 76.6921 403.259 76.7507 403.228 76.8125C403.021 77.2088 402.647 77.5279 402.177 77.7093C401.707 77.8907 401.173 77.9219 400.678 77.7969C400.601 77.7777 400.523 77.7659 400.443 77.762V77.762C400.216 77.7511 399.991 77.8015 399.8 77.9057C399.61 78.0099 399.465 78.1624 399.386 78.3407C399.307 78.5191 399.299 78.7138 399.363 78.8962C399.427 79.0786 399.559 79.2391 399.741 79.3539V79.3539C399.806 79.3933 399.876 79.4261 399.95 79.4516C400.425 79.6246 400.807 79.9369 401.024 80.3293C401.241 80.7218 401.279 81.1671 401.129 81.5811C401.106 81.6446 401.092 81.7102 401.087 81.7765V81.7765C401.074 81.9663 401.135 82.1545 401.259 82.3135C401.384 82.4724 401.567 82.5937 401.78 82.6594C401.994 82.7251 402.227 82.7318 402.446 82.6784C402.664 82.625 402.857 82.5145 402.994 82.363V82.363C403.041 82.3089 403.081 82.2503 403.111 82.1885C403.318 81.7922 403.692 81.4731 404.162 81.2917C404.632 81.1103 405.166 81.0791 405.662 81.204C405.738 81.2233 405.816 81.235 405.896 81.2389C406.123 81.2498 406.349 81.1995 406.539 81.0953C406.729 80.9911 406.875 80.8386 406.953 80.6603C407.032 80.4819 407.04 80.2872 406.976 80.1048C406.912 79.9224 406.78 79.7619 406.598 79.6471V79.6471C406.534 79.6077 406.463 79.5749 406.389 79.5494Z" fill="black"/>
<path id="Vector_66" d="M696.1 148.606C698.003 148.606 699.546 147.318 699.546 145.729C699.546 144.141 698.003 142.853 696.1 142.853C694.197 142.853 692.655 144.141 692.655 145.729C692.655 147.318 694.197 148.606 696.1 148.606Z" fill="black"/>
<path id="Vector_67" d="M719.466 64.5735H717.76V72.6235H719.466V64.5735Z" fill="black"/>
<path id="Vector_68" d="M723.438 69.3071V67.8829H713.796V69.3071H723.438Z" fill="black"/>
<path id="Vector_69" d="M274.567 130.9H272.861V138.95H274.567V130.9Z" fill="black"/>
<path id="Vector_70" d="M278.539 135.634V134.21H268.897V135.634H278.539Z" fill="black"/>
<path id="Vector_71" d="M488.654 57.5917H486.948V65.6417H488.654V57.5917Z" fill="black"/>
<path id="Vector_72" d="M492.626 62.3254V60.9011H482.984V62.3254H492.626Z" fill="black"/>
<path id="Vector_73" d="M737.028 197.227H735.322V205.277H737.028V197.227Z" fill="black"/>
<path id="Vector_74" d="M741 201.961V200.536H731.358V201.961H741Z" fill="black"/>
<path id="Vector_75" d="M235.471 52.2786C235.004 52.1087 234.628 51.8017 234.414 51.4157C234.199 51.0297 234.162 50.5915 234.309 50.1841C234.332 50.1205 234.346 50.0549 234.351 49.9886V49.9886C234.373 49.7993 234.322 49.6089 234.203 49.4465C234.084 49.2841 233.905 49.1586 233.693 49.089C233.481 49.0194 233.247 49.0096 233.028 49.0611C232.808 49.1126 232.615 49.2225 232.477 49.3742C232.43 49.4283 232.391 49.4869 232.36 49.5487C232.157 49.9388 231.789 50.2529 231.327 50.4318C230.864 50.6106 230.339 50.6417 229.851 50.5192C229.775 50.4998 229.697 50.4881 229.617 50.4843V50.4843C229.392 50.4717 229.168 50.5202 228.979 50.6227C228.789 50.7253 228.645 50.8762 228.567 51.053C228.488 51.2298 228.481 51.423 228.545 51.6036C228.61 51.7843 228.742 51.9427 228.923 52.0552C228.988 52.0946 229.058 52.1274 229.132 52.1529C229.599 52.3228 229.976 52.6299 230.19 53.0159C230.404 53.4019 230.441 53.8401 230.295 54.2475C230.272 54.311 230.258 54.3766 230.253 54.4429V54.4429C230.238 54.631 230.296 54.818 230.419 54.9762C230.542 55.1343 230.722 55.255 230.934 55.3202C231.146 55.3854 231.377 55.3917 231.594 55.338C231.81 55.2843 232 55.1736 232.135 55.0224V55.0224C232.182 54.9684 232.221 54.9098 232.252 54.8479C232.455 54.4579 232.823 54.1437 233.285 53.9648C233.748 53.786 234.272 53.7549 234.76 53.8774C234.837 53.8968 234.915 53.9085 234.995 53.9123V53.9123C235.22 53.925 235.444 53.8764 235.633 53.7739C235.823 53.6714 235.967 53.5204 236.045 53.3436C236.123 53.1668 236.131 52.9736 236.067 52.793C236.002 52.6124 235.87 52.4539 235.689 52.3414V52.3414C235.619 52.3136 235.546 52.2925 235.471 52.2786V52.2786Z" fill="black"/>
<path id="Vector_76" d="M156.744 176.708C156.277 176.538 155.901 176.231 155.687 175.845C155.472 175.459 155.435 175.02 155.582 174.613C155.605 174.549 155.619 174.484 155.624 174.418C155.639 174.23 155.581 174.042 155.458 173.884C155.335 173.726 155.154 173.605 154.942 173.54C154.731 173.475 154.499 173.469 154.283 173.522C154.067 173.576 153.877 173.687 153.742 173.838V173.838C153.695 173.892 153.656 173.951 153.625 174.013C153.421 174.403 153.054 174.717 152.591 174.896C152.129 175.074 151.604 175.106 151.116 174.983C151.04 174.964 150.961 174.952 150.882 174.948V174.948C150.657 174.936 150.433 174.984 150.243 175.087C150.054 175.189 149.909 175.34 149.831 175.517C149.753 175.694 149.746 175.887 149.81 176.067C149.874 176.248 150.007 176.407 150.188 176.519C150.253 176.558 150.323 176.591 150.397 176.617C150.864 176.787 151.24 177.094 151.455 177.48C151.669 177.866 151.706 178.304 151.559 178.711C151.536 178.775 151.522 178.84 151.518 178.907V178.907C151.502 179.095 151.561 179.282 151.683 179.44C151.806 179.598 151.987 179.719 152.199 179.784C152.411 179.849 152.642 179.856 152.858 179.802C153.075 179.748 153.264 179.637 153.399 179.486C153.446 179.432 153.486 179.374 153.516 179.312C153.72 178.922 154.088 178.608 154.55 178.429C155.012 178.25 155.537 178.219 156.025 178.341C156.101 178.361 156.18 178.372 156.259 178.376V178.376C156.484 178.389 156.709 178.34 156.898 178.238C157.087 178.135 157.232 177.984 157.31 177.807C157.388 177.631 157.396 177.437 157.331 177.257C157.267 177.076 157.134 176.918 156.953 176.805V176.805C156.889 176.766 156.818 176.733 156.744 176.708V176.708Z" fill="black"/>
<path id="Vector_77" d="M69.4036 164.65C71.2834 164.65 72.8073 163.378 72.8073 161.808C72.8073 160.239 71.2834 158.967 69.4036 158.967C67.5239 158.967 66 160.239 66 161.808C66 163.378 67.5239 164.65 69.4036 164.65Z" fill="black"/>
<path id="Vector_78" d="M121.947 74.2083C123.827 74.2083 125.351 72.9361 125.351 71.3667C125.351 69.7974 123.827 68.5252 121.947 68.5252C120.067 68.5252 118.543 69.7974 118.543 71.3667C118.543 72.9361 120.067 74.2083 121.947 74.2083Z" fill="black"/>
<path id="Vector_79" d="M710.727 269.474C712.63 269.474 714.172 268.186 714.172 266.598C714.172 265.009 712.63 263.721 710.727 263.721C708.824 263.721 707.281 265.009 707.281 266.598C707.281 268.186 708.824 269.474 710.727 269.474Z" fill="black"/>
</g>
</g>
</g>
<defs>
<linearGradient id="paint0_linear" x1="733" y1="24" x2="43" y2="474" gradientUnits="userSpaceOnUse">
<stop stop-color="#A8E6CE"/>
<stop offset="0.416667" stop-color="#DCEDC2" stop-opacity="0.67"/>
<stop offset="0.546875" stop-color="#FFAAA6" stop-opacity="0.699057"/>
<stop offset="0.9999" stop-color="#FA3AA2" stop-opacity="0.41"/>
<stop offset="1" stop-color="#FF8C94"/>
</linearGradient>
<linearGradient id="paint1_linear" x1="365.941" y1="183" x2="365.941" y2="403.093" gradientUnits="userSpaceOnUse">
<stop stop-color="#76412A"/>
<stop offset="1" stop-color="#714628" stop-opacity="0.32"/>
</linearGradient>
<clipPath id="clip0">
<rect width="788" height="474" fill="white"/>
</clipPath>
</defs>
</svg>
